<svg width="80" height="80" fill="none" xmlns="http://www.w3.org/2000/svg"><g clip-path="url(#clip0)"><circle cx="40" cy="40" r="40" fill="#fff"/><path d="M40 0a40 40 0 100 80 40 40 0 000-80zm-.873 12.26h8.613a1.144 1.144 0 011.1 1.45l-6.767 23.06 6.35-1.94-1.36 4.617-6.413 1.866-4.16 14.047h22.253a1.143 1.143 0 011.094 1.457l-1.94 6.666a1.53 1.53 0 01-1.467 1.1H22.443l5.744-19.406-6.354 1.933 1.4-4.537L29.6 40.64l8.073-27.267a1.52 1.52 0 011.457-1.113h-.003z" fill="#59C19C"/></g><defs><clipPath id="clip0"><path fill="#fff" d="M0 0h80v80H0z"/></clipPath></defs></svg>