<svg width="80" height="80" fill="none" xmlns="http://www.w3.org/2000/svg"><circle cx="40" cy="40" r="40" fill="#fff" fill-opacity=".1"/><path d="M54 55H27a2 2 0 01-2-2V26a1 1 0 012 0v27h27a1 1 0 010 2z" fill="#3671E9"/><path d="M33.75 51h-2.5A2.25 2.25 0 0129 48.75v-9.5A2.25 2.25 0 0131.25 37h2.5A2.25 2.25 0 0136 39.25v9.5A2.25 2.25 0 0133.75 51zm9 0h-2.5A2.25 2.25 0 0138 48.75v-12.5A2.25 2.25 0 0140.25 34h2.5A2.25 2.25 0 0145 36.25v12.5A2.25 2.25 0 0142.75 51zm8.977 0h-2.5a2.25 2.25 0 01-2.25-2.25v-16.5a2.25 2.25 0 012.25-2.25h2.5a2.25 2.25 0 012.25 2.25v16.5a2.25 2.25 0 01-2.25 2.25z" fill="#3671E9"/></svg>